<svg xmlns="http://www.w3.org/2000/svg" x="0px" y="0px" width="100" height="100" viewBox="0 0 48 48">
<linearGradient id="SVGID_1__P10L2mIZDis2_gr1" x1="36" x2="8.382" y1="12" y2="39.618" gradientUnits="userSpaceOnUse"><stop offset="0" stop-color="#60e8fe"></stop><stop offset=".033" stop-color="#6ae9fe"></stop><stop offset=".197" stop-color="#97f0fe"></stop><stop offset=".362" stop-color="#bdf5ff"></stop><stop offset=".525" stop-color="#dafaff"></stop><stop offset=".687" stop-color="#eefdff"></stop><stop offset=".846" stop-color="#fbfeff"></stop><stop offset="1" stop-color="#fff"></stop></linearGradient><path fill="url(#SVGID_1__P10L2mIZDis2_gr1)" d="M28.669,5.5H12.51c-1.662,0-3.01,1.348-3.01,3.01V39.49c0,1.662,1.348,3.01,3.01,3.01H35.49	c1.662,0,3.01-1.347,3.01-3.01V15.331c0-0.532-0.211-1.043-0.588-1.419l-7.825-7.825C29.711,5.711,29.201,5.5,28.669,5.5z"></path><line x1="17.5" x2="30.5" y1="22.5" y2="22.5" fill="none" stroke="#10cfe3" stroke-linecap="round" stroke-miterlimit="10" stroke-width="3"></line><line x1="17.5" x2="26.5" y1="29.5" y2="29.5" fill="none" stroke="#10cfe3" stroke-linecap="round" stroke-miterlimit="10" stroke-width="3"></line><path fill="none" stroke="#10cfe3" stroke-linecap="round" stroke-linejoin="round" stroke-miterlimit="10" stroke-width="3" d="M22.074,42.5H35.5c1.657,0,3-1.343,3-3v-25h-7c-1.105,0-2-0.895-2-2v-7"></path><path fill="none" stroke="#10cfe3" stroke-linecap="round" stroke-linejoin="round" stroke-miterlimit="10" stroke-width="3" d="M24,5.5H12.5c-1.657,0-3,1.343-3,3v31c0,1.657,1.343,3,3,3h3.862"></path><line x1="38.5" x2="29.5" y1="14.5" y2="5.5" fill="none" stroke="#10cfe3" stroke-linecap="round" stroke-linejoin="round" stroke-miterlimit="10" stroke-width="3"></line>
</svg>